<svg width="240" height="74" viewBox="0 0 240 74" fill="none" xmlns="http://www.w3.org/2000/svg">
<path fill-rule="evenodd" clip-rule="evenodd" d="M105.488 21.7864C103.168 21.7864 100.414 22.2783 97.4059 25.7662V16.0051C97.4059 13.5392 95.4046 11.5333 92.9443 11.5333C90.484 11.5333 88.4827 13.5392 88.4827 16.0051V47.8375C88.4827 50.3033 90.484 52.3092 92.9443 52.3092C95.4046 52.3092 97.4059 50.3033 97.4059 47.8375V35.4827C97.4059 31.9309 99.0886 29.9697 102.154 29.9697C105.156 29.9697 106.737 31.8734 106.737 35.4827V47.8375C106.737 50.3033 108.738 52.3092 111.199 52.3092C113.659 52.3092 115.66 50.3033 115.66 47.8375V32.8891C115.654 25.9387 111.855 21.7864 105.488 21.7864ZM131.111 22.0037C127.478 22.0037 124.597 22.4764 121.773 23.5369C120.307 24.0863 119.326 25.5044 119.326 27.0632C119.326 29.1457 120.977 30.7747 123.086 30.7747C123.52 30.7747 123.883 30.7108 124.38 30.5447C126.095 30.0081 127.905 29.7526 129.925 29.7526C134.718 29.7526 135.738 32.4037 135.751 34.646C134.087 34.103 131.99 33.6047 129.065 33.6047C121.442 33.6047 117.069 37.099 117.069 43.1998V43.3084C117.069 48.8214 121.2 52.5266 127.344 52.5266C130.805 52.5266 133.578 51.4725 135.789 49.3133C136.165 50.8912 137.676 52.3157 139.996 52.3157C142.437 52.3157 144.349 50.4248 144.349 48.0101V34.8312C144.349 30.6853 143.266 27.4912 141.118 25.3447C138.9 23.128 135.534 22.0037 131.111 22.0037ZM129.817 46.1192C127.287 46.1192 125.719 44.9182 125.719 42.9826V42.874C125.719 40.5678 127.644 39.2519 131.003 39.2519C132.723 39.2519 134.438 39.5904 135.859 40.2037V41.4238C135.859 44.1836 133.374 46.1192 129.817 46.1192ZM156.306 25.8433C158.613 23.1155 161.456 21.7867 164.974 21.7867C171.686 21.7867 178.474 27.0442 178.474 37.0993V37.2079C178.474 41.8393 177.053 45.7617 174.369 48.5597C171.915 51.1214 168.582 52.5268 164.974 52.5268C161.501 52.5268 158.741 51.3386 156.351 48.8089V56.4747C156.351 58.9405 154.349 60.9464 151.889 60.9464C149.429 60.9464 147.427 58.9405 147.427 56.4747V26.4757C147.427 24.0098 149.429 22.0039 151.889 22.0039C154.139 22.0039 156 23.6777 156.306 25.8433ZM169.557 37.0993C169.557 32.7617 166.683 29.4845 162.871 29.4845C159.034 29.4845 156.242 32.685 156.242 37.0993V37.2079C156.242 41.6221 159.028 44.8226 162.871 44.8226C166.746 44.8226 169.557 41.6221 169.557 37.2079V37.0993ZM198.08 21.7867C194.561 21.7867 191.719 23.1155 189.411 25.8433C189.105 23.6777 187.244 22.0039 184.994 22.0039C182.534 22.0039 180.533 24.0098 180.533 26.4757V56.4747C180.533 58.9405 182.534 60.9464 184.994 60.9464C187.455 60.9464 189.456 58.9405 189.456 56.4747V48.8089C191.846 51.3386 194.606 52.5268 198.08 52.5268C201.687 52.5268 205.021 51.1214 207.475 48.5597C210.158 45.7617 211.579 41.8393 211.579 37.2079V37.0993C211.579 27.0442 204.791 21.7867 198.08 21.7867ZM195.976 29.4845C199.788 29.4845 202.662 32.7617 202.662 37.0993V37.2079C202.662 41.6221 199.852 44.8226 195.976 44.8226C192.133 44.8226 189.348 41.6221 189.348 37.2079V37.0993C189.348 32.685 192.139 29.4845 195.976 29.4845ZM231.485 25.3768C232.313 23.1664 233.792 22.0038 235.761 22.0038C238.139 22.0038 240.006 23.8244 240 26.137C240 26.8077 239.783 27.7787 239.592 28.2259L229.528 52.45C226.998 58.589 224.359 60.7674 219.445 60.7674C217.711 60.7674 216.379 60.5374 214.849 59.9881C213.797 59.6048 212.026 58.6082 212.026 56.2446C212.026 53.9193 213.855 52.533 215.62 52.533C216.321 52.533 216.742 52.6544 217.08 52.7694C217.775 52.9866 218.157 53.076 218.686 53.076C220.025 53.076 220.586 52.8588 221.261 51.562L221.465 51.0765L211.675 28.3409C211.452 27.7787 211.216 26.9099 211.216 26.303C211.216 23.85 213.109 21.9974 215.62 21.9974C217.692 21.9974 219.094 23.0834 219.897 25.3193L225.793 41.2067L231.485 25.3768Z" fill="white"/>
<path d="M63.9739 18.7786V44.9078C63.9739 55.2784 55.5339 63.6863 45.1237 63.6863H43.217L33.4805 73.3795C33.0992 73.7594 32.5717 74 31.987 74C31.4467 74 30.9574 73.8037 30.5824 73.4745L30.4172 73.3099L30.4108 73.3036L20.7569 63.6863H18.8439C8.44003 63.6863 0 55.2784 0 44.9078V18.7786C0 8.40794 8.44003 0 18.8503 0H45.1237C55.5339 0 63.9739 8.40794 63.9739 18.7786Z" fill="#FFD666"/>
<path d="M14.895 36.197C13.0392 36.197 11.9814 38.3036 13.0582 39.8248C17.2449 45.7501 24.1677 49.6133 31.99 49.6133C39.8123 49.6133 46.7289 45.7437 50.9155 39.8248C51.9923 38.3036 50.9345 36.197 49.0787 36.197H14.895Z" fill="white"/>
<path d="M25.764 27.2298H14.5658V21.6036C14.5658 18.4977 17.074 15.9774 20.1649 15.9774C23.2558 15.9774 25.764 18.4977 25.764 21.6036V27.2298Z" fill="white"/>
<path d="M49.4148 27.2298H38.2166V21.6036C38.2166 18.4977 40.7248 15.9774 43.8157 15.9774C46.9066 15.9774 49.4148 18.4977 49.4148 21.6036V27.2298Z" fill="white"/>
</svg>
